<svg t="1763899962165" class="icon" viewBox="0 0 1028 1024" version="1.1" xmlns="http://www.w3.org/2000/svg" p-id="1870"
     width="200" height="200">
    <path d="M413.52996339 610.47003661c84.77721251 84.77721251 182.59707233 163.0331 221.72501697 123.90515625 52.17059196-52.17059196 91.29853661-104.34118393 208.68236875-6.52132411 123.90515625 97.81985982 26.08529643 163.0331-26.08529644 215.20369197-58.69191607 58.69191607-286.93825714 6.52132411-515.18459732-221.72501608S15.72919911 264.83986339 80.94243928 206.14794733c52.17059196-52.17059196 117.38383215-149.99045267 215.20369197-26.08529643 97.81985982 123.90515625 52.17059196 156.51177679-6.52132411 208.68236875-39.12794375 39.12794375 39.12794375 136.94780446 123.90515625 221.72501696zM570.04174018 251.79721518s-26.08529643-6.52132411-39.12794375 13.04264822c-19.56397233 19.56397233-19.56397233 45.64926786 0 65.21324017 13.04264821 13.04264821 26.08529643 13.04264821 26.08529553 13.04264821 32.60661964 6.52132411 78.25588839 13.04264821 123.90515625 65.21324018 52.17059196 52.17059196 58.69191607 97.81985982 65.21324018 123.90515625 0 0 0 13.04264821 13.04264821 26.08529554 19.56397233 19.56397233 52.17059196 19.56397233 65.21324019 0 19.56397233-13.04264821 13.04264821-39.12794375 13.04264821-39.12794375-6.52132411-65.21324018-39.12794375-123.90515625-91.29853661-176.07574822-52.17059196-52.17059196-117.38383215-78.25588839-176.07574821-91.2985366z m169.55442411 32.60662053C837.416025 382.22369553 876.54396875 493.08620357 863.50132053 584.38474019c0 0-6.52132411 26.08529643 13.04264822 45.64926785 19.56397233 19.56397233 52.17059196 19.56397233 71.73456429 0 13.04264821-13.04264821 19.56397233-32.60661964 19.56397233-32.60661965 13.04264821-78.25588839 0-234.76766428-156.5117768-384.75811696S504.8285 49.63617053 426.57261161 56.15749464c0 0-19.56397233 0-32.60661965 13.04264822-19.56397233 19.56397233-19.56397233 52.17059196 0 71.73456428 19.56397233 19.56397233 45.64926786 13.04264821 45.64926785 13.04264822 91.29853661-6.52132411 202.16104465 32.60661964 299.98090448 130.42648035z"
          fill="#3598DB" p-id="1871"></path>
</svg>