<svg xmlns:xlink="http://www.w3.org/1999/xlink" xmlns="http://www.w3.org/2000/svg" viewBox="0 0 750 550"
     class="design-iconfont">
    <defs>
        <filter x="-1.3%" y="-1.9%" width="102.4%" height="103.7%" filterUnits="objectBoundingBox" id="at3m2yj07d">
            <feGaussianBlur stdDeviation="2" in="SourceGraphic"/>
        </filter>
        <filter x="-1.7%" y="-2.6%" width="103.3%" height="105.3%" filterUnits="objectBoundingBox" id="pthazzmzme">
            <feGaussianBlur stdDeviation="3" in="SourceGraphic"/>
        </filter>
        <linearGradient x1="49.9303194%" y1="23.1111111%" x2="50%" y2="76.8888889%" id="x5mystaz1b">
            <stop stop-color="#F8FAFF" offset="0%"/>
            <stop stop-color="#EEF6FF" offset="40.5998111%"/>
            <stop stop-color="#EDF3FF" offset="66.5152047%"/>
            <stop stop-color="#FFF" offset="100%"/>
        </linearGradient>
        <path id="fik4qz5bua" d="M0 0.6472156H750V550.6472156H0z"/>
    </defs>
    <g transform="translate(0 -.647216)" fill="none" fill-rule="evenodd">
        <mask id="88652j04pc" fill="#fff">
            <use xlink:href="#fik4qz5bua"/>
        </mask>
        <use fill="url(#x5mystaz1b)" xlink:href="#fik4qz5bua"/>
        <g stroke="#4B81FB" stroke-width="2" mask="url(#88652j04pc)" opacity=".09560213">
            <path d="M704.264331,376.781572 C671.860487,377.873956 633.987205,378 616.66888,378 L240,378 C377.040863,245.51817 496.594534,129.977619 510.160243,116.86435 C522.572022,104.862138 550.519633,78.2527985 574.620813,56.6525509 C627.542087,9.23657611 675.167481,-0.305439496 708.856595,0.00733694502 C761.646528,0.488172369 809.642493,21.9390343 843.946098,56.577858 C917.361349,131.252066 915.616382,250.569276 841.009676,324.057735 C817.077364,347.637344 774.372588,374.414742 704.264331,376.781572 Z"
                  opacity=".1" transform="scale(-1 1) rotate(38 40.72876859 -1573.31482092)"/>
            <path d="M674.264331,376.781572 C641.860487,377.873956 603.987205,378 586.66888,378 L210,378 C347.040863,245.51817 466.594534,129.977619 480.160243,116.86435 C492.572022,104.862138 520.519633,78.2527985 544.620813,56.6525509 C597.542087,9.23657611 645.167481,-0.305439496 678.856595,0.00733694502 C731.646528,0.488172369 779.642493,21.9390343 813.946098,56.577858 C887.361349,131.252066 885.616382,250.569276 811.009676,324.057735 C787.077364,347.637344 744.372588,374.414742 674.264331,376.781572 Z"
                  opacity=".2" transform="scale(-1 1) rotate(38 40.72876859 -1573.31482092)"/>
            <path d="M644.264331,376.781572 C611.860487,377.873956 573.987205,378 556.66888,378 L180,378 C317.040863,245.51817 436.594534,129.977619 450.160243,116.86435 C462.572022,104.862138 490.519633,78.2527985 514.620813,56.6525509 C567.542087,9.23657611 615.167481,-0.305439496 648.856595,0.00733694502 C701.646528,0.488172369 749.642493,21.9390343 783.946098,56.577858 C857.361349,131.252066 855.616382,250.569276 781.009676,324.057735 C757.077364,347.637344 714.372588,374.414742 644.264331,376.781572 Z"
                  opacity=".3" transform="scale(-1 1) rotate(38 40.72876859 -1573.31482092)"/>
            <path d="M614.264331,376.781572 C581.860487,377.873956 543.987205,378 526.66888,378 L150,378 C287.040863,245.51817 406.594534,129.977619 420.160243,116.86435 C432.572022,104.862138 460.519633,78.2527985 484.620813,56.6525509 C537.542087,9.23657611 585.167481,-0.305439496 618.856595,0.00733694502 C671.646528,0.488172369 719.642493,21.9390343 753.946098,56.577858 C827.361349,131.252066 825.616382,250.569276 751.009676,324.057735 C727.077364,347.637344 684.372588,374.414742 614.264331,376.781572 Z"
                  opacity=".4" transform="scale(-1 1) rotate(38 40.72876859 -1573.31482092)"/>
            <path d="M584.264331,376.781572 C551.860487,377.873956 513.987205,378 496.66888,378 L120,378 C257.040863,245.51817 376.594534,129.977619 390.160243,116.86435 C402.572022,104.862138 430.519633,78.2527985 454.620813,56.6525509 C507.542087,9.23657611 555.167481,-0.305439496 588.856595,0.00733694502 C641.646528,0.488172369 689.642493,21.9390343 723.946098,56.577858 C797.361349,131.252066 795.616382,250.569276 721.009676,324.057735 C697.077364,347.637344 654.372588,374.414742 584.264331,376.781572 Z"
                  opacity=".5" transform="scale(-1 1) rotate(38 40.72876859 -1573.31482092)"/>
            <path d="M554.264331,376.781572 C521.860487,377.873956 483.987205,378 466.66888,378 L90,378 C227.040863,245.51817 346.594534,129.977619 360.160243,116.86435 C372.572022,104.862138 400.519633,78.2527985 424.620813,56.6525509 C477.542087,9.23657611 525.167481,-0.305439496 558.856595,0.00733694502 C611.646528,0.488172369 659.642493,21.9390343 693.946098,56.577858 C767.361349,131.252066 765.616382,250.569276 691.009676,324.057735 C667.077364,347.637344 624.372588,374.414742 554.264331,376.781572 Z"
                  opacity=".6" filter="url(#at3m2yj07d)" transform="scale(-1 1) rotate(38 40.72876859 -1573.31482092)"/>
            <path d="M524.264331,376.781572 C491.860487,377.873956 453.987205,378 436.66888,378 L60,378 C197.040863,245.51817 316.594534,129.977619 330.160243,116.86435 C342.572022,104.862138 370.519633,78.2527985 394.620813,56.6525509 C447.542087,9.23657611 495.167481,-0.305439496 528.856595,0.00733694502 C581.646528,0.488172369 629.642493,21.9390343 663.946098,56.577858 C737.361349,131.252066 735.616382,250.569276 661.009676,324.057735 C637.077364,347.637344 594.372588,374.414742 524.264331,376.781572 Z"
                  opacity=".7" transform="scale(-1 1) rotate(38 40.72876859 -1573.31482092)"/>
            <path d="M494.264331,376.781572 C461.860487,377.873956 423.987205,378 406.66888,378 L30,378 C167.040863,245.51817 286.594534,129.977619 300.160243,116.86435 C312.572022,104.862138 340.519633,78.2527985 364.620813,56.6525509 C417.542087,9.23657611 465.167481,-0.305439496 498.856595,0.00733694502 C551.646528,0.488172369 599.642493,21.9390343 633.946098,56.577858 C707.361349,131.252066 705.616382,250.569276 631.009676,324.057735 C607.077364,347.637344 564.372588,374.414742 494.264331,376.781572 Z"
                  opacity=".8" transform="scale(-1 1) rotate(38 40.72876859 -1573.31482092)"/>
            <path d="M464.264331,376.781572 C431.860487,377.873956 393.987205,378 376.66888,378 L0,378 C137.040863,245.51817 256.594534,129.977619 270.160243,116.86435 C282.572022,104.862138 310.519633,78.2527985 334.620813,56.6525509 C387.542087,9.23657611 435.167481,-0.305439496 468.856595,0.00733694502 C521.646528,0.488172369 569.642493,21.9390343 603.946098,56.577858 C677.361349,131.252066 675.616382,250.569276 601.009676,324.057735 C577.077364,347.637344 534.372588,374.414742 464.264331,376.781572 Z"
                  opacity=".9" filter="url(#pthazzmzme)" transform="scale(-1 1) rotate(38 40.72876859 -1573.31482092)"/>
        </g>
    </g>
</svg>
